<svg width="264" height="55" viewBox="0 0 264 55" fill="none" xmlns="http://www.w3.org/2000/svg" id="danfoss-logo">
<g clip-path="url(#clip0)">
<mask id="mask0" mask-type="alpha" maskUnits="userSpaceOnUse" x="-5" y="0" width="269" height="55">
<rect x="-4.125" width="268.125" height="55" fill="#C4C4C4"/>
</mask>
<g mask="url(#mask0)">
<g filter="url(#filter0_f)">
<path d="M9.625 -1.375L22 -1.37497L22 53.625H13.75L9.625 -1.375Z" fill="#90010C"/>
</g>
<g filter="url(#filter1_f)">
<path d="M144.375 -1.375L132 -1.37497L132 53.625H140.25L144.375 -1.375Z" fill="#90010C"/>
</g>
<path d="M140.25 0H13.75V55H140.25V0Z" fill="#E2000F"/>
<path d="M29.3539 17.6328C37.3128 14.6877 46.3197 12.7782 55.5231 14.1051L56.4731 12.3898C58.3726 12.0986 60.3051 11.8396 62.2046 11.6454L59.6499 15.4968C62.1392 16.5648 64.2024 19.1538 64.4318 21.8724C64.4318 25.5619 62.7616 28.6364 60.8617 31.4844L63.6458 31.1608C65.5125 28.151 70.7532 24.5262 72.9146 27.2772L73.668 26.2415C73.668 26.2415 77.107 25.7237 77.1724 25.7237C74.1264 31.3226 72.4887 32.8436 72.8821 33.3615C73.3404 33.9764 78.9084 29.0895 81.0044 25.1088L84.3126 24.7528L82.4456 28.0215C85.7863 25.303 86.9982 23.5553 88.8652 24.3321C91.4525 25.4001 85.7863 31.355 86.4087 31.7433C86.9328 32.067 91.4854 28.7659 93.6797 25.4324L90.5683 25.9179L91.649 23.9113L94.7278 23.523C98.0686 17.4386 106.846 5.82001 109.532 7.53527C112.021 9.1211 106.027 16.8237 98.1668 22.3902L97.6756 23.2641L104.488 22.5197C104.619 22.5844 104.685 22.811 104.521 22.9404C102.326 24.7852 98.0032 29.2837 100.263 30.6753C102.261 31.3874 105.372 26.8241 105.667 25.8855C103.898 25.3353 105.307 20.4484 107.829 21.0957C109.532 21.6782 108.254 24.0732 107.829 25.0117C111.071 24.6233 113.986 21.3546 113.986 21.3546C113.953 18.7655 115.624 15.9822 117.556 16.6618C118.801 17.3091 117.785 19.1538 115.722 21.3222C115.46 21.5811 115.591 22.5844 115.558 23.7819C117.753 23.0375 120.242 22.0019 122.306 20.9986C122.338 18.5066 123.583 15.4968 125.712 16.1117C127.251 16.5648 125.712 19.6393 123.779 21.1928C123.746 24.5262 124.303 26.727 123.452 28.4746C122.469 30.4811 119.063 32.1641 117.032 30.999C114.936 29.8015 116.803 27.1153 118.08 26.1121C119.227 25.1735 122.142 23.8466 122.142 23.8466C122.142 23.8466 122.306 22.7139 122.24 22.1637C121.094 22.8433 115.624 24.8499 115.624 24.8499C115.395 26.8241 115.428 27.6332 114.478 29.4455C113.299 31.6786 109.401 32.5848 108.091 31.3226C107.174 30.4488 107.436 28.3452 109.336 26.8564C110.744 25.7237 113.757 24.4939 113.757 24.4939C113.757 24.4939 114.019 23.3611 113.921 22.908C111.988 24.5586 109.794 26.2091 106.977 26.2739C105.274 29.6397 100.722 34.3002 97.4791 32.1964C94.3349 30.1899 99.3787 24.8822 99.9028 24.4939C98.8546 24.5586 96.7585 25.0117 96.7585 25.0117L91.2235 35.1414L91.2889 35.1093C91.2889 35.1093 110.187 32.9732 127.349 32.9407L125.286 34.8502C126.268 35.5297 127.284 36.2096 128.332 36.7921C128.332 36.7921 110.449 36.0155 89.8477 37.6983L86.8345 43.2326L83.1008 43.4914L86.3433 37.9571C86.3433 37.9571 76.9759 38.2483 56.4074 40.9994C56.6367 40.5786 56.7021 40.4815 57.0297 39.9315C75.2729 36.3067 87.6859 35.4005 87.6859 35.4005C87.6859 35.4005 90.5683 30.5135 90.4372 30.6106C88.6358 32.0994 84.6402 35.271 82.9697 33.7177C81.7579 32.2288 85.9828 27.4713 85.4916 27.083C85.0986 26.7593 80.0873 31.8405 78.286 34.6239C77.2707 34.6885 75.3711 34.9151 75.3711 34.9151L76.8123 32.1317C75.1746 33.394 73.4387 34.7531 71.6045 35.4651C71.0804 35.6593 69.9015 35.7242 69.4102 34.3648C69.4102 34.3648 65.709 37.6659 63.22 36.4038C61.877 35.7242 62.4994 33.2319 62.7287 32.6819L59.781 33.0056C47.0075 47.6341 30.3365 49.2845 28.3386 46.0805C26.2097 42.6498 33.7755 38.0542 44.1254 34.818C44.1254 34.818 53.3288 18.4418 53.1649 18.3124C40.457 16.4029 24.7358 26.0473 24.7358 26.0473L29.3539 17.6328ZM34.1685 44.0093C35.6752 45.8863 48.1539 43.9122 56.6039 33.5556C50.7741 34.4618 47.3022 35.6918 46.025 36.1447C43.2737 40.5786 42.1273 42.1969 41.0793 42.0349C39.802 41.8732 41.8326 39.4783 42.9133 37.1805C38.3281 38.6691 32.7929 42.2615 34.1685 44.0093ZM47.6627 33.7823C50.9377 32.9085 56.0472 32.0994 57.7832 31.9052C59.2569 29.5426 64.0388 21.6782 57.1937 19.2186L47.6627 33.7823ZM67.4124 30.4811C66.4296 31.7757 65.3817 33.944 66.1677 34.5589C66.9866 35.1739 69.2137 33.2644 69.9668 32.3259C71.2444 30.6753 72.2922 28.4099 71.5063 27.9891C70.2616 27.3419 68.1001 29.575 67.4124 30.4811ZM99.5752 19.6393C102.064 18.1182 108.418 11.872 106.846 10.4156C105.208 9.70362 100.852 16.6618 99.5752 19.6393ZM110.907 27.0506C109.859 27.795 109.336 28.7335 109.86 29.1542C110.351 29.5426 111.661 28.7983 112.218 27.9891C113.135 26.7593 113.331 25.6913 113.331 25.6913C113.331 25.6913 112.512 25.8855 110.907 27.0506ZM119.194 26.6299C118.834 26.9535 117.491 28.151 118.08 28.7335C118.572 29.2513 120.045 28.3775 120.635 27.6979C121.421 26.7593 121.814 25.2706 121.814 25.2706C121.814 25.2706 120.242 25.7237 119.194 26.6299Z" fill="white"/>
<path d="M157.452 19.9204H153.655V16.8221H157.684V15.7603H152.375V25.5643H157.902V24.5024H153.655V20.9677H157.452V19.9204Z" fill="white"/>
<path d="M161.781 25.5643V21.375C161.781 19.7459 161.766 18.5677 161.693 17.3312L161.737 17.3167C162.217 18.3786 162.872 19.4986 163.555 20.5895L166.668 25.5643H167.948V15.7603H166.755V19.8622C166.755 21.3896 166.785 22.5824 166.901 23.8915L166.857 23.906C166.406 22.9024 165.824 21.8696 165.112 20.7205L161.984 15.7603H160.588V25.5643H161.781Z" fill="white"/>
<path d="M178.678 20.415H175.449V21.4332H177.427V24.357C177.136 24.5024 176.569 24.6188 175.74 24.6188C173.441 24.6188 171.958 23.1496 171.958 20.6623C171.958 18.204 173.514 16.7203 175.9 16.7203C176.889 16.7203 177.543 16.8949 178.067 17.1421L178.387 16.1094C177.965 15.9057 177.063 15.6584 175.929 15.6584C172.641 15.6584 170.619 17.7967 170.619 20.7205C170.619 22.2478 171.143 23.5569 171.987 24.3715C172.947 25.2879 174.169 25.6661 175.652 25.6661C176.976 25.6661 178.111 25.3461 178.678 25.1279V20.415Z" fill="white"/>
<path d="M181.629 15.7603V25.5643H182.909V15.7603H181.629Z" fill="white"/>
<path d="M187.356 25.5643V21.375C187.356 19.7459 187.341 18.5677 187.269 17.3312L187.312 17.3167C187.792 18.3786 188.447 19.4986 189.131 20.5895L192.243 25.5643H193.523V15.7603H192.331V19.8622C192.331 21.3896 192.36 22.5824 192.476 23.8915L192.433 23.906C191.982 22.9024 191.4 21.8696 190.687 20.7205L187.56 15.7603H186.163V25.5643H187.356Z" fill="white"/>
<path d="M201.838 19.9204H198.042V16.8221H202.071V15.7603H196.762V25.5643H202.289V24.5024H198.042V20.9677H201.838V19.9204Z" fill="white"/>
<path d="M210.037 19.9204H206.24V16.8221H210.27V15.7603H204.96V25.5643H210.488V24.5024H206.24V20.9677H210.037V19.9204Z" fill="white"/>
<path d="M213.173 25.5643H214.439V21.3168H215.631C216.781 21.3605 217.319 21.8696 217.61 23.2224C217.872 24.4442 218.09 25.2734 218.25 25.5643H219.559C219.355 25.1861 219.122 24.2406 218.802 22.8733C218.57 21.8551 218.119 21.1568 217.377 20.895V20.8514C218.395 20.5023 219.21 19.6441 219.21 18.364C219.21 17.5931 218.919 16.924 218.439 16.4876C217.842 15.9494 216.955 15.6875 215.602 15.6875C214.744 15.6875 213.813 15.7748 213.173 15.8912V25.5643ZM214.439 16.7785C214.657 16.7203 215.079 16.6767 215.69 16.6767C217.028 16.6767 217.944 17.2294 217.944 18.4949C217.944 19.615 217.086 20.3568 215.733 20.3568H214.439V16.7785Z" fill="white"/>
<path d="M222.025 15.7603V25.5643H223.305V15.7603H222.025Z" fill="white"/>
<path d="M227.751 25.5643V21.375C227.751 19.7459 227.737 18.5677 227.664 17.3312L227.708 17.3167C228.188 18.3786 228.842 19.4986 229.526 20.5895L232.639 25.5643H233.919V15.7603H232.726V19.8622C232.726 21.3896 232.755 22.5824 232.871 23.8915L232.828 23.906C232.377 22.9024 231.795 21.8696 231.082 20.7205L227.955 15.7603H226.558V25.5643H227.751Z" fill="white"/>
<path d="M244.648 20.415H241.419V21.4332H243.397V24.357C243.106 24.5024 242.539 24.6188 241.71 24.6188C239.412 24.6188 237.928 23.1496 237.928 20.6623C237.928 18.204 239.484 16.7203 241.87 16.7203C242.859 16.7203 243.514 16.8949 244.037 17.1421L244.357 16.1094C243.936 15.9057 243.034 15.6584 241.899 15.6584C238.612 15.6584 236.59 17.7967 236.59 20.7205C236.59 22.2478 237.113 23.5569 237.957 24.3715C238.917 25.2879 240.139 25.6661 241.623 25.6661C242.946 25.6661 244.081 25.3461 244.648 25.1279V20.415Z" fill="white"/>
<path d="M155.189 39.0716H157.4V31.1295H160.076V29.2676H152.541V31.1295H155.189V39.0716Z" fill="white"/>
<path d="M166.809 29.093C163.929 29.093 162.038 31.2895 162.038 34.2278C162.038 37.0351 163.754 39.2316 166.649 39.2316C169.529 39.2316 171.463 37.297 171.463 34.0678C171.463 31.3477 169.82 29.093 166.809 29.093ZM166.765 30.8531C168.292 30.8531 169.121 32.3659 169.121 34.1405C169.121 36.046 168.263 37.4715 166.765 37.4715C165.281 37.4715 164.379 36.1187 164.379 34.1841C164.379 32.2786 165.252 30.8531 166.765 30.8531Z" fill="white"/>
<path d="M183.029 39.0716H185.181L184.658 29.2676H181.749L180.716 32.5259C180.381 33.6168 180.047 34.9114 179.785 36.046H179.727C179.509 34.8969 179.218 33.675 178.898 32.5404L177.938 29.2676H174.985L174.359 39.0716H176.41L176.599 35.3478C176.657 34.1259 176.716 32.6132 176.759 31.2895H176.788C177.036 32.5695 177.356 33.9659 177.676 35.1296L178.723 38.9116H180.454L181.647 35.086C182.025 33.9368 182.432 32.5404 182.752 31.2895H182.781C182.781 32.715 182.825 34.1405 182.869 35.3187L183.029 39.0716Z" fill="white"/>
<path d="M192.862 29.093C189.981 29.093 188.09 31.2895 188.09 34.2278C188.09 37.0351 189.807 39.2316 192.702 39.2316C195.582 39.2316 197.516 37.297 197.516 34.0678C197.516 31.3477 195.873 29.093 192.862 29.093ZM192.818 30.8531C194.345 30.8531 195.174 32.3659 195.174 34.1405C195.174 36.046 194.316 37.4715 192.818 37.4715C191.334 37.4715 190.432 36.1187 190.432 34.1841C190.432 32.2786 191.305 30.8531 192.818 30.8531Z" fill="white"/>
<path d="M200.63 39.0716H202.827V35.2169H203.481C204.398 35.2314 204.82 35.5515 205.096 36.7879C205.372 37.9952 205.62 38.7807 205.765 39.0716H208.034C207.845 38.6934 207.554 37.4133 207.249 36.2933C207.002 35.3914 206.623 34.7514 205.94 34.475V34.4314C206.783 34.1259 207.671 33.2677 207.671 32.0313C207.671 31.1295 207.351 30.4313 206.754 29.9658C206.056 29.413 205.038 29.1948 203.583 29.1948C202.39 29.1948 201.343 29.2821 200.63 29.3985V39.0716ZM202.827 30.9258C202.987 30.8822 203.292 30.8531 203.83 30.8531C204.849 30.8531 205.46 31.3186 205.46 32.2059C205.46 33.0641 204.805 33.6168 203.7 33.6168H202.827V30.9258Z" fill="white"/>
<path d="M210.915 39.0716H213.112V35.2169H213.766C214.683 35.2314 215.105 35.5515 215.381 36.7879C215.657 37.9952 215.905 38.7807 216.05 39.0716H218.319C218.13 38.6934 217.839 37.4133 217.534 36.2933C217.286 35.3914 216.908 34.7514 216.225 34.475V34.4314C217.068 34.1259 217.956 33.2677 217.956 32.0313C217.956 31.1295 217.636 30.4313 217.039 29.9658C216.341 29.413 215.323 29.1948 213.868 29.1948C212.675 29.1948 211.628 29.2821 210.915 29.3985V39.0716ZM213.112 30.9258C213.272 30.8822 213.577 30.8531 214.115 30.8531C215.134 30.8531 215.745 31.3186 215.745 32.2059C215.745 33.0641 215.09 33.6168 213.984 33.6168H213.112V30.9258Z" fill="white"/>
<path d="M225.464 29.093C222.583 29.093 220.692 31.2895 220.692 34.2278C220.692 37.0351 222.409 39.2316 225.304 39.2316C228.184 39.2316 230.118 37.297 230.118 34.0678C230.118 31.3477 228.475 29.093 225.464 29.093ZM225.42 30.8531C226.947 30.8531 227.776 32.3659 227.776 34.1405C227.776 36.046 226.918 37.4715 225.42 37.4715C223.936 37.4715 223.034 36.1187 223.034 34.1841C223.034 32.2786 223.907 30.8531 225.42 30.8531Z" fill="white"/>
<path d="M237.247 39.0716L238.178 34.8532C238.411 33.8641 238.571 32.9332 238.745 31.8277H238.774C238.891 32.9477 239.051 33.8641 239.24 34.8532L240.069 39.0716H242.469L245 29.2676H242.745L241.945 33.2677C241.742 34.446 241.524 35.5951 241.378 36.686H241.349C241.203 35.5951 241.043 34.5478 240.825 33.3986L240.04 29.2676H237.683L236.854 33.2677C236.607 34.4896 236.374 35.6678 236.214 36.7297H236.185C236.025 35.7406 235.821 34.475 235.603 33.2968L234.861 29.2676H232.49L234.818 39.0716H237.247Z" fill="white"/>
</g>
</g>
<defs>
<filter id="filter0_f" x="5.6959" y="-5.3041" width="20.2332" height="62.8582" filterUnits="userSpaceOnUse" color-interpolation-filters="sRGB">
<feFlood flood-opacity="0" result="BackgroundImageFix"/>
<feBlend mode="normal" in="SourceGraphic" in2="BackgroundImageFix" result="shape"/>
<feGaussianBlur stdDeviation="1.96455" result="effect1_foregroundBlur"/>
</filter>
<filter id="filter1_f" x="128.071" y="-5.3041" width="20.2332" height="62.8582" filterUnits="userSpaceOnUse" color-interpolation-filters="sRGB">
<feFlood flood-opacity="0" result="BackgroundImageFix"/>
<feBlend mode="normal" in="SourceGraphic" in2="BackgroundImageFix" result="shape"/>
<feGaussianBlur stdDeviation="1.96455" result="effect1_foregroundBlur"/>
</filter>
<clipPath id="clip0">
<rect width="264" height="55" fill="white"/>
</clipPath>
</defs>
</svg>
